<?xml version="1.0" encoding="UTF-8" standalone="no"?><!-- Generator: Gravit.io --><svg xmlns="http://www.w3.org/2000/svg" xmlns:xlink="http://www.w3.org/1999/xlink" style="isolation:isolate" viewBox="816 213 257 257" width="257pt" height="257pt"><defs><clipPath id="_clipPath_ZOmIi8srCKwFa61eBaVOcM1ncX0fIUm5"><rect x="816" y="213" width="257" height="257"/></clipPath></defs><g clip-path="url(#_clipPath_ZOmIi8srCKwFa61eBaVOcM1ncX0fIUm5)"><path d="M 831 213 L 1058 213 C 1066.279 213 1073 219.721 1073 228 L 1073 455 C 1073 463.279 1066.279 470 1058 470 L 831 470 C 822.721 470 816 463.279 816 455 L 816 228 C 816 219.721 822.721 213 831 213 Z" style="stroke:none;fill:#FFE045;stroke-miterlimit:10;"/><path d=" M 1013.271 396.205 L 985.381 412.308 L 957.49 428.41 C 950.321 432.549 938.679 432.549 931.51 428.41 L 903.619 412.308 L 875.729 396.205 C 868.559 392.066 862.739 381.984 862.739 373.705 L 862.739 341.5 L 862.739 309.295 C 862.739 301.016 868.559 290.934 875.729 286.795 L 903.619 270.692 L 931.51 254.59 C 938.679 250.451 950.321 250.451 957.49 254.59 L 985.381 270.692 L 1013.271 286.795 C 1020.441 290.934 1026.261 301.016 1026.261 309.295 L 1026.261 341.5 L 1026.261 373.705 C 1026.261 381.984 1020.441 392.066 1013.271 396.205 Z " fill="rgb(255,255,255)"/></g></svg>